<svg viewBox="0 0 128 128" xmlns="http://www.w3.org/2000/svg">
  <defs>
    <style>
      .ink{stroke:#14120F;fill:none;stroke-linecap:round;stroke-linejoin:round}
      .gld{stroke:#CBA46A;fill:none;stroke-linecap:round;stroke-linejoin:round}
      .thin{stroke-width:2.2}
      .med{stroke-width:3.4}
      .thick{stroke-width:4.2}
    </style>
  </defs>

  <!-- subtle crest circle to feel “badge” without shouting -->
  <circle cx="64" cy="64" r="58" class="ink thin" opacity=".25"/>

  <!-- head (no facial features) -->
  <circle cx="46" cy="40" r="10" class="ink thin"/>

  <!-- lapels / torso (clean V geometry) -->
  <path d="M34 86 L46 52 L58 86" class="ink thick"/>

  <!-- minimal knot (tiny diamond) -->
  <path d="M46 52 l-3 2.3 3 2.3 3-2.3 -3-2.3z" fill="#CBA46A" stroke="none"/>

  <!-- forearm carrying tray -->
  <path d="M60 66 C72 72, 84 75, 96 76" class="ink thick"/>
  <line x1="96" y1="76" x2="118" y2="76" class="ink thick"/>

  <!-- napkin (vertical, restrained) -->
  <rect x="38.5" y="64" width="9" height="17" rx="1.6" class="ink thin" fill="#F7F4EE"/>

  <!-- clock (premium: only 12/3/6/9 ticks; hands at 10:10) -->
  <circle cx="110" cy="58" r="11" class="ink med" fill="none"/>
  <g class="ink thin">
    <line x1="110" y1="47" x2="110" y2="49.5"/>
    <line x1="110" y1="66.5" x2="110" y2="69"/>
    <line x1="99"  y1="58" x2="101.5" y2="58"/>
    <line x1="118.5" y1="58" x2="121" y2="58"/>
  </g>
  <g class="gld med">
    <line x1="110" y1="58" x2="110" y2="50"/>  <!-- hour -->
    <line x1="110" y1="58" x2="118" y2="58"/>  <!-- minute -->
  </g>
  <circle cx="110" cy="58" r="1.5" fill="#CBA46A"/>
</svg>